<?xml version="1.0" ?>

<svg xmlns="http://www.w3.org/2000/svg" xmlns:xlink="http://www.w3.org/1999/xlink" xmlns:svgjs="http://svgjs.dev/svgjs" version="1.1" width="267.7025858963778" height="247.2" viewBox="0 0 375 345.5">
	<g transform="scale(0.25)">
	<g transform="matrix(1,0,0,1,-0.8315820595440755,0.5605473799840865)">
		<svg xmlns="http://www.w3.org/2000/svg" xmlns:xlink="http://www.w3.org/1999/xlink" viewBox="0 0 268 247" data-background-color="#ffffff" preserveAspectRatio="xMidYMid meet" height="1382" width="1500">
			
				<g id="tight-bounds" transform="matrix(1,0,0,1,0.14857599463854854,-0.09997365579206985)">
					<svg viewBox="0 0 267.7025858963778 247.2" height="247.2" width="267.7025858963778">
						<g>
							<svg viewBox="0 0 267.7025858963778 247.2" height="247.2" width="267.7025858963778">
								<g>
									<svg viewBox="0 0 267.7025858963778 247.2" height="247.2" width="267.7025858963778">
										<g id="textblocktransform">
											<svg viewBox="0 0 267.7025858963778 247.2" height="247.2" width="267.7025858963778" id="textblock">
												<g>
													<svg viewBox="0 0 267.7025858963778 247.2" height="247.2" width="267.7025858963778">
														<path d="M267.076 53.02C265.817 27.36 262.231 20.227 262.231 20.227 251.218-6.202 237.475-0.506 225.129 3.292 203.331 3.446 181.622 9.091 159.874 12.119 114.228 12.581 68.191 4.986 22.771 23.717 18.504 29.464-4.426 24.846 0.759 56.304 2.118 69.39 7.077 83.913 6.926 95.922 7.605 98.026 8.549 93.202 8.952 96.23 10.361 104.39 12.665 100.541 14.552 105.365 11.922 118.246 13.81 128.971 15.61 140.21 12.438 143.135 8.373 141.749 6.548 151.449 6.359 158.479 5.34 157.145 4.22 156.837 3.402 156.632 1.753 157.402 2.03 159.608 2.974 167.152-1.079 171.514 1.464 178.904-0.286 186.91 2.672 193.838 2.269 202.511 2.219 204.255 2.496 205.744 2.936 206.154 4.887 208.361 2.043 212.672 2.345 217.342 22.355 249.262 44.065 227.195 64.566 241.872 69.89 231.608 65.888 245.516 68.015 243.36 69.676 240.846 70.884 251.263 72.759 245.362 73.049 243.668 72.608 239.665 73.64 240.435 74.181 240.846 74.66 240.743 74.735 238.382 74.848 234.841 73.854 237.048 73.59 235.201 76.447 225.861 75.742 248.081 78.423 247.158 78.297 244.438 77.516 240.538 79.115 241.051 80.701 237.151 80.751 233.918 82.16 242.693 82.211 244.592 82.462 245.926 82.865 246.85 87.27 237.305 91.65 250.237 96.269 245.926 99.1 241.205 101.819 248.492 104.688 246.696 105.695 245.259 106.714 242.693 107.683 247.004 119.551 247.928 132.199 244.079 143.451 247.158 173.517 241.41 205.647 249.518 237.349 241.923 244.825 238.998 252.59 234.841 259.877 231.506 259.877 231.506 265.78 222.371 265.78 181.316S267.038 145.393 267.227 112.703C267.416 80.013 268.297 78.679 267.038 53.02Z" opacity="1" fill="#d69723" data-fill-palette-color="tertiary"/>
														<g transform="matrix(1,0,0,1,55.76832,26.230666666666668)">
															<svg width="156.1659458963778" viewBox="1.5944462222399998 -36.1 29.10555377776 36.35" height="194.73866666666666" data-palette-color="#ffffff">
																<path d="M16.1 0.25L16.1 0.25Q15.6 0.25 15.03 0.18 14.45 0.1 13.8 0L13.8 0 13.8-31.9 1.95-31.9Q1.15-34.25 1.95-36.1L1.95-36.1 30.3-36.1Q30.7-35.3 30.7-34.1 30.7-32.9 30.3-31.9L30.3-31.9 18.5-31.9 18.5 0Q17.85 0.1 17.25 0.18 16.65 0.25 16.1 0.25Z" opacity="1" transform="matrix(1,0,0,1,0,0)" fill="#ffffff" class="wordmark-text-0" data-fill-palette-color="quaternary" id="text-0"/>
															</svg>
														</g>
													</svg>
												</g>
											</svg>
										</g>
									</svg>
								</g>
								<g/>
							</svg>
						</g>
						<defs/>
					</svg>
					<rect width="267.7025858963778" height="247.2" fill="none" stroke="none" visibility="hidden"/>
				</g>
		</svg>
	</g>
</g>
</svg>
